<svg width="22" height="22" viewBox="0 0 22 22" fill="none" xmlns="http://www.w3.org/2000/svg">
<path d="M0 3.20833C0 2.4475 0.614167 1.83333 1.375 1.83333H16.0417C16.8025 1.83333 17.4167 2.4475 17.4167 3.20833C17.4167 3.96917 16.8025 4.58333 16.0417 4.58333H1.375C0.614167 4.58333 0 3.96917 0 3.20833ZM16.0417 16.5H1.375C0.614167 16.5 0 17.1142 0 17.875C0 18.6358 0.614167 19.25 1.375 19.25H16.0417C16.8025 19.25 17.4167 18.6358 17.4167 17.875C17.4167 17.1142 16.8025 16.5 16.0417 16.5ZM20.625 9.16667H5.95833C5.1975 9.16667 4.58333 9.78083 4.58333 10.5417C4.58333 11.3025 5.1975 11.9167 5.95833 11.9167H20.625C21.3858 11.9167 22 11.3025 22 10.5417C22 9.78083 21.3858 9.16667 20.625 9.16667Z" fill="#626F83"/>
</svg>
