<svg width="18" height="18" viewBox="0 0 18 18" fill="none" xmlns="http://www.w3.org/2000/svg">
<path d="M9.00008 17.3333C4.39771 17.3333 0.666748 13.6023 0.666748 8.99999C0.666748 4.39761 4.39771 0.666656 9.00008 0.666656C13.6024 0.666656 17.3334 4.39761 17.3334 8.99999C17.3334 13.6023 13.6024 17.3333 9.00008 17.3333ZM9.00008 6.91666C9.69041 6.91666 10.2501 6.35701 10.2501 5.66666C10.2501 4.9763 9.69041 4.41666 9.00008 4.41666C8.30975 4.41666 7.75008 4.9763 7.75008 5.66666C7.75008 6.35701 8.30975 6.91666 9.00008 6.91666ZM10.6667 11.5H9.83341V7.74999H7.33341V9.41666H8.16675V11.5H7.33341V13.1667H10.6667V11.5Z" fill="#92A0B7"/>
</svg>
