<svg width="20" height="20" viewBox="0 0 20 20" fill="none" xmlns="http://www.w3.org/2000/svg">
<path d="M10.004 18.3356C5.40162 18.3356 1.67065 14.6047 1.67065 10.0022C1.67065 5.3999 5.40162 1.66895 10.004 1.66895C14.6063 1.66895 18.3373 5.3999 18.3373 10.0022C18.3373 14.6047 14.6063 18.3356 10.004 18.3356ZM7.08732 11.6689V13.3356H9.17067V15.0022H10.8373V13.3356H11.6707C12.8213 13.3356 13.754 12.4029 13.754 11.2522C13.754 10.1017 12.8213 9.1689 11.6707 9.1689H8.33734C8.1072 9.1689 7.92065 8.9824 7.92065 8.75224C7.92065 8.52215 8.1072 8.33557 8.33734 8.33557H12.9207V6.66895H10.8373V5.00228H9.17067V6.66895H8.33734C7.18673 6.66895 6.25399 7.60168 6.25399 8.75224C6.25399 9.9029 7.18673 10.8356 8.33734 10.8356H11.6707C11.9008 10.8356 12.0873 11.0222 12.0873 11.2522C12.0873 11.4824 11.9008 11.6689 11.6707 11.6689H7.08732Z" fill="#92A0B7"/>
</svg>
