<svg width="20" height="20" viewBox="0 0 20 20" fill="none" xmlns="http://www.w3.org/2000/svg">
<path d="M16.5187 8.10724H15.6075C15.1168 8.10724 14.6962 7.68667 14.6962 7.19602C14.6962 4.60256 12.5934 2.49976 10 2.49976H7.19626C4.6028 2.49976 2.5 4.60256 2.5 7.19602V12.8035C2.5 15.3969 4.6028 17.4998 7.19626 17.4998H12.8038C15.3972 17.4998 17.5 15.3969 17.5 12.8035V9.08851C17.5 8.52776 17.0794 8.10724 16.5187 8.10724ZM7.12617 6.28481H10.4907C10.9813 6.28481 11.4018 6.70536 11.4018 7.19602C11.4018 7.68667 10.9813 8.10724 10.4907 8.10724H7.12617C6.63552 8.10724 6.21495 7.68667 6.21495 7.19602C6.21495 6.70536 6.63552 6.28481 7.12617 6.28481ZM12.8738 13.7147H7.19626C6.70561 13.7147 6.28505 13.2942 6.28505 12.8035C6.28505 12.3128 6.70561 11.8923 7.19626 11.8923H12.8738C13.3645 11.8923 13.7851 12.3128 13.7851 12.8035C13.7851 13.2942 13.3645 13.7147 12.8738 13.7147Z" fill="#92A0B7"/>
</svg>
