<svg width="20" height="20" viewBox="0 0 20 20" fill="none" xmlns="http://www.w3.org/2000/svg">
<path d="M10.3051 11.1383L11.784 11.9926C10.8751 14.003 10.8295 16.2224 11.5247 18.1928C11.0313 18.2855 10.5213 18.3333 10.0001 18.3333C8.7795 18.3333 7.6202 18.0709 6.57553 17.5994L10.3051 11.1383ZM13.2363 12.8313L16.7641 14.8686C15.8521 16.1334 14.5941 17.1322 13.1287 17.7262C12.5873 16.2592 12.5631 14.6123 13.1354 13.0847L13.2363 12.8313ZM7.38251 9.45141L8.86175 10.305L5.13152 16.764C3.76625 15.7796 2.71099 14.392 2.14019 12.7757C4.10593 12.4103 5.92991 11.3429 7.2112 9.68157L7.38251 9.45141ZM18.2543 8.84707C18.3065 9.22391 18.3334 9.60882 18.3334 9.99999C18.3334 11.2206 18.071 12.3799 17.5995 13.4246L14.0699 11.3874C15.0882 10.0414 16.548 9.17316 18.1248 8.86966L18.2543 8.84707ZM2.40066 6.57544L5.92998 8.61299C4.88377 9.99574 3.37158 10.8742 1.74582 11.1545C1.69374 10.7767 1.66675 10.3915 1.66675 9.99999C1.66675 8.77941 1.92916 7.62011 2.40066 6.57544ZM14.8687 3.23597C16.2337 4.22022 17.2888 5.6075 17.8597 7.22346C15.8935 7.58999 14.0697 8.65757 12.7887 10.3188L12.6173 10.549L11.1384 9.69499L14.8687 3.23597ZM10.0001 1.66666C11.2207 1.66666 12.38 1.92907 13.4247 2.40057L9.69508 8.86166L8.21585 8.00818C9.12508 5.99751 9.17075 3.77776 8.47541 1.80706C8.96883 1.71451 9.47883 1.66666 10.0001 1.66666ZM6.87241 2.27446C7.41298 3.7412 7.43711 5.38828 6.8645 6.91599L6.76352 7.16945L3.23606 5.13143C4.11351 3.91452 5.31124 2.94392 6.70576 2.34313L6.87241 2.27446Z" fill="#92A0B7"/>
</svg>
