<svg width="20" height="20" viewBox="0 0 20 20" fill="none" xmlns="http://www.w3.org/2000/svg">
<g clip-path="url(#clip0_46_2473)">
<path d="M17.4999 6.66668C18.4204 6.66668 19.1666 7.41287 19.1666 8.33334V11.6667C19.1666 12.5872 18.4204 13.3333 17.4999 13.3333H16.615C16.2049 16.6219 13.3996 19.1667 9.99992 19.1667V17.5C12.7613 17.5 14.9999 15.2614 14.9999 12.5V7.50001C14.9999 4.73859 12.7613 2.50001 9.99992 2.50001C7.23849 2.50001 4.99992 4.73859 4.99992 7.50001V13.3333H2.49992C1.57944 13.3333 0.833252 12.5872 0.833252 11.6667V8.33334C0.833252 7.41287 1.57944 6.66668 2.49992 6.66668H3.38483C3.79491 3.37809 6.60024 0.833344 9.99992 0.833344C13.3996 0.833344 16.2049 3.37809 16.615 6.66668H17.4999ZM6.46612 13.1541L7.34957 11.7406C8.11793 12.2218 9.02642 12.5 9.99992 12.5C10.9734 12.5 11.8819 12.2218 12.6503 11.7406L13.5338 13.1541C12.5093 13.7958 11.2979 14.1667 9.99992 14.1667C8.70192 14.1667 7.4906 13.7958 6.46612 13.1541Z" fill="#92A0B7"/>
</g>
<defs>
<clipPath id="clip0_46_2473">
<rect width="20" height="20" fill="white"/>
</clipPath>
</defs>
</svg>
