<svg width="22" height="22" viewBox="0 0 22 22" fill="none" xmlns="http://www.w3.org/2000/svg">
<g clip-path="url(#clip0_46_2443)">
<path d="M17.4167 3.66667H16.4074C15.9812 1.57758 14.1295 0 11.9167 0H4.58333C2.05608 0 0 2.05608 0 4.58333V16.3662C0 17.094 0.39875 17.7595 1.0395 18.1023C1.331 18.2591 1.65092 18.3361 1.96992 18.3361C2.35125 18.3361 2.73167 18.2252 3.06075 18.0061L5.76492 16.203C6.39833 17.9767 8.09417 19.25 10.0833 19.25H15.3056L18.9392 21.6737C19.2683 21.8927 19.6488 22.0037 20.0301 22.0037C20.3491 22.0037 20.6681 21.9257 20.9605 21.769C21.6012 21.4252 22 20.7597 22 20.0328V8.25C22 5.72275 19.9439 3.66667 17.4167 3.66667ZM2.04417 16.4807C2.02675 16.4917 1.97633 16.5247 1.90483 16.4872C1.83242 16.4487 1.83242 16.3872 1.83242 16.3671V4.58333C1.83242 3.06717 3.06625 1.83333 4.58242 1.83333H11.9157C13.4319 1.83333 14.6657 3.06717 14.6657 4.58333V11C14.6657 12.5162 13.4319 13.75 11.9157 13.75H6.41575C6.13525 13.75 5.91983 13.8958 5.89783 13.9104L2.04417 16.4807ZM20.1667 20.0337C20.1667 20.053 20.1667 20.1153 20.0952 20.1538C20.0218 20.1932 19.9723 20.1593 19.9558 20.1474L16.0921 17.5707C15.9418 17.4707 15.7648 17.4167 15.5833 17.4167H10.0833C8.888 17.4167 7.86958 16.6503 7.491 15.5833H11.9167C14.4439 15.5833 16.5 13.5272 16.5 11V5.5H17.4167C18.9328 5.5 20.1667 6.73383 20.1667 8.25V20.0337ZM5.5 6.41667C5.5 5.60175 5.85842 4.83358 6.48267 4.30925C7.10692 3.78492 7.92825 3.56308 8.74042 3.71067C9.84867 3.90408 10.7607 4.81525 10.956 5.92625C11.1604 7.09225 10.6058 8.25733 9.5755 8.82658C9.16575 9.05208 9.16575 9.11808 9.16575 9.16667C9.16575 9.67358 8.75508 10.0833 8.24908 10.0833C7.74308 10.0833 7.33242 9.67358 7.33242 9.16667C7.33242 7.96767 8.28392 7.44425 8.69 7.22058C8.95583 7.07483 9.23542 6.73017 9.15017 6.24342C9.08692 5.88408 8.78167 5.57883 8.42325 5.5165C8.14275 5.46517 7.87142 5.53667 7.66058 5.7145C7.45158 5.88867 7.33242 6.14533 7.33242 6.41758C7.33242 6.9245 6.92175 7.33425 6.41575 7.33425C5.90975 7.33425 5.49908 6.9245 5.49908 6.41758L5.5 6.41667ZM9.16667 11.9167C9.16667 12.4227 8.756 12.8333 8.25 12.8333C7.744 12.8333 7.33333 12.4227 7.33333 11.9167C7.33333 11.4107 7.744 11 8.25 11C8.756 11 9.16667 11.4107 9.16667 11.9167Z" fill="#92A0B7"/>
</g>
<defs>
<clipPath id="clip0_46_2443">
<rect width="22" height="22" fill="white"/>
</clipPath>
</defs>
</svg>
